<?xml version="1.0" encoding="UTF-8"?>
<svg xmlns="http://www.w3.org/2000/svg" viewBox="0 0 1000 1000" aria-hidden="true">
  <defs>
    <radialGradient id="sw-cool" gradientUnits="userSpaceOnUse" cx="500" cy="500" r="500">
      <stop offset="0%" stop-color="#d8f6ff" stop-opacity="0.92"/>
      <stop offset="20%" stop-color="#a8ecff" stop-opacity="0.76"/>
      <stop offset="50%" stop-color="#84ecff" stop-opacity="0.46"/>
      <stop offset="78%" stop-color="#84ecff" stop-opacity="0.20"/>
      <stop offset="100%" stop-color="#84ecff" stop-opacity="0"/>
    </radialGradient>

    <radialGradient id="sw-warm" gradientUnits="userSpaceOnUse" cx="500" cy="500" r="500">
      <stop offset="0%" stop-color="#efe4ff" stop-opacity="0.88"/>
      <stop offset="25%" stop-color="#c8b4ff" stop-opacity="0.70"/>
      <stop offset="55%" stop-color="#b8a8ff" stop-opacity="0.42"/>
      <stop offset="100%" stop-color="#b8a8ff" stop-opacity="0"/>
    </radialGradient>
  </defs>

  <g fill="none" stroke="url(#sw-cool)" stroke-linecap="round">
    <circle cx="500" cy="500" r="24" stroke-width="1.4"/>
    <circle cx="500" cy="500" r="50" stroke-width="1.0"/>
    <circle cx="500" cy="500" r="116" stroke-width="1.0"/>
    <circle cx="500" cy="500" r="152" stroke-width="1.4"/>
    <circle cx="500" cy="500" r="232" stroke-width="1.1"/>
    <circle cx="500" cy="500" r="274" stroke-width="1.3"/>
    <circle cx="500" cy="500" r="318" stroke-width="1.0"/>
    <circle cx="500" cy="500" r="406" stroke-width="1.0"/>
    <circle cx="500" cy="500" r="448" stroke-width="1.5"/>
    <circle cx="500" cy="500" r="486" stroke-width="1.0"/>
  </g>

  <g fill="none" stroke="url(#sw-warm)" stroke-linecap="round">
    <circle cx="500" cy="500" r="82" stroke-width="2.4"/>
    <circle cx="500" cy="500" r="192" stroke-width="2.8"/>
    <circle cx="500" cy="500" r="362" stroke-width="3.0"/>
  </g>

  <g fill="none" stroke="url(#sw-cool)" stroke-linecap="round" stroke-dasharray="6 14">
    <circle cx="500" cy="500" r="68" stroke-width="0.9"/>
    <circle cx="500" cy="500" r="214" stroke-width="1.0"/>
    <circle cx="500" cy="500" r="340" stroke-width="1.1"/>
    <circle cx="500" cy="500" r="468" stroke-width="0.9"/>
  </g>

  <circle cx="500" cy="500" r="6" fill="#d4c4ff" opacity="0.95"/>
  <circle cx="500" cy="500" r="13" fill="none" stroke="#84ecff" stroke-width="1.2" opacity="0.65"/>
</svg>
